<?xml version="1.0" encoding="UTF-8"?>
<svg id="Ebene_1" xmlns="http://www.w3.org/2000/svg" version="1.1" xmlns:xlink="http://www.w3.org/1999/xlink" viewBox="0 0 44 31">
  <!-- Generator: Adobe Illustrator 30.3.0, SVG Export Plug-In . SVG Version: 2.1.3 Build 182)  -->
  <defs>
    <style>
      .st0 {
        fill: #fff;
      }

      .st1 {
        fill: none;
      }

      .st2 {
        clip-path: url(#clippath);
      }
    </style>
    <clipPath id="clippath">
      <rect class="st1" width="44" height="30.14"/>
    </clipPath>
  </defs>
  <g class="st2">
    <g>
      <path class="st0" d="M19.07,8.49c1.15-2.39.15-5.26-2.24-6.41-2.39-1.15-5.26-.15-6.41,2.24L2.08,21.61c-1.15,2.39-.15,5.26,2.24,6.41,2.39,1.15,5.26.15,6.41-2.24l8.34-17.29Z"/>
      <path class="st0" d="M30.46,8.49c1.15-2.39.15-5.26-2.24-6.41-2.39-1.15-5.26-.15-6.41,2.24l-2.91,6.04c-1.15,2.39-.15,5.26,2.24,6.41,2.39,1.15,5.26.15,6.41-2.24l2.91-6.04Z"/>
      <path class="st0" d="M41.92,8.49c1.15-2.39.15-5.26-2.24-6.41-2.39-1.15-5.26-.15-6.41,2.24l-8.34,17.29c-1.15,2.39-.15,5.26,2.24,6.41,2.39,1.15,5.26.15,6.41-2.24l8.34-17.29Z"/>
    </g>
  </g>
</svg>