<svg xmlns="http://www.w3.org/2000/svg" viewBox="0 0 44 31">
  <rect width="44" height="31" fill="none"/>
  <g fill="#0c0c0c">
    <path d="M19.07,8.49c1.15-2.39.15-5.26-2.24-6.41-2.39-1.15-5.26-.15-6.41,2.24L2.08,21.61c-1.15,2.39-.15,5.26,2.24,6.41,2.39,1.15,5.26.15,6.41-2.24l8.34-17.29Z"/>
    <path d="M30.46,8.49c1.15-2.39.15-5.26-2.24-6.41-2.39-1.15-5.26-.15-6.41,2.24l-2.91,6.04c-1.15,2.39-.15,5.26,2.24,6.41,2.39,1.15,5.26.15,6.41-2.24l2.91-6.04Z"/>
    <path d="M41.92,8.49c1.15-2.39.15-5.26-2.24-6.41-2.39-1.15-5.26-.15-6.41,2.24l-8.34,17.29c-1.15,2.39-.15,5.26,2.24,6.41,2.39,1.15,5.26.15,6.41-2.24l8.34-17.29Z"/>
  </g>
</svg>
